Coordinates
version=1
nRows=14
nColumns=63
inDegrees=yes

Units are S.I. units (second, meters, Newtons, ...)
If the header above contains a line with 'inDegrees', this indicates whether rotational values are in degrees (yes) or radians (no).

endheader
time	pelvis_tilt	pelvis_list	pelvis_rotation	pelvis_tx	pelvis_ty	pelvis_tz	hip_flexion_r	hip_adduction_r	hip_rotation_r	knee_angle_r	knee_angle_r_beta	ankle_angle_r	subtalar_angle_r	mtp_angle_r	hip_flexion_l	hip_adduction_l	hip_rotation_l	knee_angle_l	knee_angle_l_beta	ankle_angle_l	subtalar_angle_l	mtp_angle_l	L5_S1_Flex_Ext	L5_S1_Lat_Bending	L5_S1_axial_rotation	L4_L5_Flex_Ext	L4_L5_Lat_Bending	L4_L5_axial_rotation	L3_L4_Flex_Ext	L3_L4_Lat_Bending	L3_L4_axial_rotation	L2_L3_Flex_Ext	L2_L3_Lat_Bending	L2_L3_axial_rotation	L1_L2_Flex_Ext	L1_L2_Lat_Bending	L1_L2_axial_rotation	L1_T12_Flex_Ext	L1_T12_Lat_Bending	L1_T12_axial_rotation	Abs_r3	Abs_r2	Abs_r1	Abs_t1	Abs_t2	neck_flexion	neck_bending	neck_rotation	arm_flex_r	arm_add_r	arm_rot_r	elbow_flex_r	pro_sup_r	wrist_flex_r	wrist_dev_r	arm_flex_l	arm_add_l	arm_rot_l	elbow_flex_l	pro_sup_l	wrist_flex_l	wrist_dev_l
6.152542	-0.388608	-14.649227	89.169837	0.157971	0.937301	0.391898	2.279508	0.083953	-19.768581	8.623761	0.150513	36.146900	9.956118	0.000000	0.862767	-0.788167	9.513407	0.285767	0.004988	30.894142	-7.889262	0.000000	-0.469375	0.336392	-0.218498	-0.871676	0.447401	-0.232155	-0.771136	0.817903	-0.232155	-0.536449	0.817903	-0.191186	-0.435862	0.685970	-0.177530	-0.268201	0.521071	-0.163874	-3.352699	3.805332	-1.215223	0.000000	0.000000	10.851105	-1.194395	9.397743	-5.910584	-14.787597	31.103158	28.901364	75.348107	1.570459	-4.219815	2.938929	-6.886646	135.294129	3.303136	3.770238	-7.964559	-12.536814
6.169492	-0.483755	-14.570439	89.269056	0.158192	0.937511	0.390714	1.999465	0.034454	-20.185840	8.320758	0.145225	36.226879	10.337570	0.000000	0.715609	-0.710719	9.623112	0.284058	0.004958	30.871236	-7.818380	0.000000	-0.436713	0.319013	-0.273043	-0.811019	0.424287	-0.290109	-0.717475	0.775648	-0.290109	-0.499119	0.775648	-0.238913	-0.405531	0.650531	-0.221848	-0.249538	0.494151	-0.204783	-3.119394	3.608736	-1.518586	0.000000	0.000000	12.313353	-1.092366	10.074600	-5.337942	-14.748635	33.804540	28.071784	73.342222	1.684289	-4.586946	2.785897	-7.083946	134.909359	3.624942	4.193844	-8.494967	-12.092021
6.186441	-0.595144	-14.484643	89.291161	0.158392	0.937746	0.389605	1.733660	-0.052170	-20.631692	8.081936	0.141056	36.265035	10.841972	0.000000	0.561921	-0.609730	9.691442	0.287725	0.005022	30.812688	-7.838176	0.000000	-0.403898	0.299123	-0.317047	-0.750079	0.397834	-0.336863	-0.663564	0.727288	-0.336863	-0.461615	0.727288	-0.277416	-0.375060	0.609972	-0.257601	-0.230787	0.463342	-0.237786	-2.885004	3.383742	-1.763323	0.000000	0.000000	13.783216	-0.911913	10.818112	-4.662958	-14.741422	37.049315	27.255124	70.853928	1.883120	-4.981790	2.639006	-7.260941	134.521606	3.928267	4.554035	-9.010824	-11.636273
6.203390	-0.726899	-14.390136	89.248095	0.158561	0.938030	0.388653	1.493058	-0.179971	-21.074606	7.929899	0.138403	36.229634	11.403014	0.000000	0.407484	-0.483016	9.714120	0.293053	0.005115	30.728642	-7.903042	0.000000	-0.373497	0.275120	-0.346591	-0.693622	0.365910	-0.368253	-0.613619	0.668927	-0.368253	-0.426870	0.668927	-0.303267	-0.346830	0.561025	-0.281605	-0.213416	0.426161	-0.259944	-2.667854	3.112213	-1.927637	0.000000	0.000000	15.243978	-0.547616	11.587449	-3.912280	-14.730891	40.642423	26.439171	68.011077	2.114095	-5.456873	2.520172	-7.428653	134.115037	4.213345	4.896533	-9.501215	-11.174010
6.220339	-0.886193	-14.282856	89.155470	0.158678	0.938360	0.387814	1.262986	-0.346057	-21.408360	7.843009	0.136886	36.103391	11.871398	0.000000	0.249914	-0.322088	9.578918	0.300785	0.005250	30.650341	-7.845521	0.000000	-0.345892	0.246683	-0.360109	-0.642356	0.328089	-0.382615	-0.568266	0.599785	-0.382615	-0.395320	0.599785	-0.315095	-0.321195	0.503036	-0.292588	-0.197643	0.382112	-0.270081	-2.470670	2.790529	-2.002816	0.000000	0.000000	16.669470	-0.060048	12.359914	-3.215613	-14.718105	43.794352	25.678961	65.558364	2.312706	-5.919664	2.433008	-7.598195	133.542200	4.504085	5.393813	-9.973426	-10.685946
6.237288	-1.054955	-14.170808	89.023907	0.158744	0.938730	0.387080	1.059931	-0.540331	-21.720939	7.846317	0.136944	35.917679	12.355205	0.000000	0.096400	-0.146641	9.450563	0.306899	0.005356	30.556437	-7.868122	0.000000	-0.320322	0.216155	-0.357507	-0.594871	0.287486	-0.379852	-0.526258	0.525560	-0.379852	-0.366097	0.525560	-0.312819	-0.297451	0.440784	-0.290475	-0.183032	0.334824	-0.268131	-2.288031	2.445190	-1.988349	0.000000	0.000000	17.997676	0.587432	13.221938	-2.470528	-14.693838	47.396502	24.911663	62.668701	2.561369	-6.481655	2.383889	-7.761609	133.018847	4.799401	5.861896	-10.392930	-10.180767
6.254237	-1.219447	-14.054540	88.928534	0.158726	0.939163	0.386491	0.860917	-0.730180	-21.974212	7.875457	0.137453	35.651967	12.716190	0.000000	-0.041208	0.026883	9.290332	0.315677	0.005510	30.491605	-7.796110	0.000000	-0.298958	0.184722	-0.354597	-0.555195	0.245680	-0.376760	-0.491158	0.449133	-0.376760	-0.341679	0.449133	-0.310273	-0.277612	0.376685	-0.288110	-0.170825	0.286134	-0.265948	-2.135428	2.089611	-1.972164	0.000000	0.000000	19.247438	1.404958	14.245410	-1.642947	-14.661523	51.465949	24.085291	59.384027	2.812174	-7.182551	2.377784	-7.931116	132.364165	5.124998	6.354460	-10.743448	-9.713663
6.271186	-1.359178	-13.944694	88.860228	0.158621	0.939633	0.386024	0.684353	-0.897765	-22.187168	7.941880	0.138612	35.326706	12.979241	0.000000	-0.157212	0.177880	9.036711	0.325889	0.005688	30.483778	-7.555581	0.000000	-0.279623	0.155534	-0.340885	-0.519288	0.206860	-0.362191	-0.459393	0.378165	-0.362191	-0.319581	0.378165	-0.298275	-0.259658	0.317165	-0.276969	-0.159777	0.240922	-0.255664	-1.997319	1.759432	-1.895902	0.000000	0.000000	20.369711	2.325907	15.385463	-0.805046	-14.627959	55.842160	23.241845	55.778354	3.066735	-7.954850	2.433566	-8.106494	131.375196	5.542374	7.080735	-11.096779	-9.295851
6.288136	-1.456502	-13.849729	88.850429	0.158393	0.940121	0.385688	0.536690	-1.018650	-22.294844	8.029872	0.140148	34.940729	13.034785	0.000000	-0.242688	0.289421	8.852649	0.336215	0.005868	30.494622	-7.329872	0.000000	-0.261729	0.131331	-0.318383	-0.486056	0.174670	-0.338282	-0.429994	0.319319	-0.338282	-0.299130	0.319319	-0.278585	-0.243041	0.267810	-0.258687	-0.149552	0.203432	-0.238788	-1.869502	1.485644	-1.770753	0.000000	0.000000	21.320129	3.342173	16.687462	-0.013277	-14.596661	60.269923	22.427563	52.028876	3.303653	-8.717681	2.546946	-8.249668	130.513332	5.954414	7.750899	-11.382409	-8.937380
6.305085	-1.514323	-13.768965	88.886821	0.158105	0.940624	0.385471	0.421122	-1.094719	-22.338170	8.138925	0.142051	34.536283	12.962314	0.000000	-0.302786	0.360358	8.637763	0.347411	0.006063	30.550565	-6.994519	0.000000	-0.245012	0.110844	-0.283480	-0.455012	0.147422	-0.301197	-0.402530	0.269505	-0.301197	-0.280024	0.269505	-0.248045	-0.227518	0.226032	-0.230327	-0.140000	0.171697	-0.212610	-1.750097	1.253886	-1.576628	0.000000	0.000000	22.029259	4.454416	18.105885	0.817853	-14.537888	65.369347	21.555916	47.494594	3.566826	-9.623009	2.700117	-8.366585	129.733233	6.322559	8.373355	-11.555544	-8.716442
6.322034	-1.505275	-13.702076	88.981341	0.157727	0.941097	0.385373	0.334640	-1.091443	-22.242732	8.245474	0.143911	34.131075	12.669696	0.000000	-0.339991	0.364868	8.538694	0.357213	0.006235	30.608830	-6.751850	0.000000	-0.230302	0.098069	-0.231506	-0.427694	0.130431	-0.245975	-0.378363	0.238444	-0.245975	-0.263212	0.238444	-0.202568	-0.213858	0.199982	-0.188099	-0.131595	0.151908	-0.173630	-1.645024	1.109373	-1.287567	0.000000	0.000000	22.491947	5.567740	19.573948	1.439869	-14.482141	69.590555	20.823668	43.597020	3.768587	-10.365531	2.881576	-8.428035	129.316270	6.558991	8.809013	-11.551787	-8.631995
6.338983	-1.350011	-13.648976	89.139751	0.157062	0.941621	0.385397	0.282023	-0.945950	-22.078029	8.338056	0.145527	33.708955	12.271245	0.000000	-0.349823	0.233902	8.483011	0.368059	0.006424	30.693459	-6.508702	0.000000	-0.216440	0.106047	-0.158680	-0.401952	0.141043	-0.168597	-0.355590	0.257844	-0.168597	-0.247370	0.257844	-0.138845	-0.200987	0.216252	-0.128927	-0.123674	0.164267	-0.119010	-1.546012	1.199629	-0.882530	0.000000	0.000000	22.655897	6.480846	21.050265	1.926479	-14.537321	73.452192	20.208702	39.742317	3.898597	-11.111766	3.571118	-7.974049	135.097903	5.049382	4.332691	-10.958279	-9.645796
6.355932	-1.125650	-13.591115	89.401958	0.156327	0.942047	0.385591	0.236037	-0.724812	-21.941911	8.405180	0.146698	33.363352	11.832143	0.000000	-0.346847	0.030660	8.674630	0.377593	0.006590	30.751021	-6.479689	0.000000	-0.210404	0.120453	-0.081846	-0.390741	0.160202	-0.086962	-0.345672	0.292869	-0.086962	-0.240470	0.292869	-0.071615	-0.195381	0.245628	-0.066500	-0.120225	0.186582	-0.061385	-1.502892	1.362588	-0.455204	0.000000	0.000000	22.584385	7.196661	22.350068	2.161487	-14.593823	76.022235	19.796495	36.924135	3.938067	-11.689800	4.039832	-7.668020	138.176056	4.161087	2.274026	-10.580632	-10.337810
6.372881	-0.846282	-13.522921	89.718145	0.155637	0.942344	0.385965	0.197976	-0.433793	-21.738062	8.439818	0.147303	33.116609	11.290874	0.000000	-0.339790	-0.237203	8.986620	0.386298	0.006742	30.829029	-6.547605	0.000000	-0.214902	0.138987	-0.001157	-0.399094	0.184853	-0.001229	-0.353062	0.337934	-0.001229	-0.245611	0.337934	-0.001012	-0.199558	0.283423	-0.000940	-0.122795	0.215291	-0.000868	-1.535022	1.572252	-0.006433	0.000000	0.000000	22.267843	7.683078	23.488701	2.196692	-14.650819	77.428138	19.575561	35.043442	3.953322	-12.157868	4.312098	-7.557956	138.921623	3.851538	2.262362	-10.400924	-10.854705
